<svg xmlns="http://www.w3.org/2000/svg" width="171" height="57" viewBox="0 0 171 57">
  <g id="Logo-black" transform="translate(-4213.854 -1702.856)">
    <g id="Favicon" transform="translate(4213.612 1702.726)">
      <rect id="Rectangle_21" data-name="Rectangle 21" width="57" height="57" rx="28.5" transform="translate(0.242 0.13)"/>
      <g id="Group_14" data-name="Group 14" transform="translate(6.662 6.779)">
        <path id="Path_43" data-name="Path 43" d="M21.8,0A21.995,21.995,0,1,1,0,21.994,21.9,21.9,0,0,1,21.8,0Z" transform="translate(0.388 0)" fill="#fff"/>
        <path id="Path_42" data-name="Path 42" d="M21.779,125.592c14.505,0,21.779-.959,21.779,11.188A21.78,21.78,0,1,1,0,136.78C0,124.633,7.274,125.592,21.779,125.592Z" transform="translate(0 -120.18)"/>
        <path id="Path_41" data-name="Path 41" d="M20.934,125.591c13.942,0,20.934-.923,20.934,10.758A21.042,21.042,0,0,1,20.934,157.5,21.042,21.042,0,0,1,0,136.349C0,124.669,6.992,125.591,20.934,125.591Z" transform="translate(0.845 -119.542)" fill="#fff"/>
        <rect id="Rectangle_18" data-name="Rectangle 18" width="1.645" height="11.612" transform="translate(20.322 16.378) rotate(90)"/>
        <rect id="Rectangle_19" data-name="Rectangle 19" width="1.645" height="11.411" transform="translate(35.702 16.378) rotate(90)"/>
      </g>
    </g>
    <text id="Logo" transform="translate(4279.854 1739.856)" font-size="22" font-family="Poppins-Black, Poppins" font-weight="800"><tspan x="0" y="0">EDUNETO</tspan></text>
  </g>
</svg>
