<svg id="dashboard" xmlns="http://www.w3.org/2000/svg" width="100.001" height="100" viewBox="0 0 100.001 100">
  <path id="Path_44" data-name="Path 44" d="M40.932,46H5.068A5.068,5.068,0,0,1,0,40.932V5.068A5.068,5.068,0,0,1,5.068,0H40.933A5.068,5.068,0,0,1,46,5.068V40.933A5.068,5.068,0,0,1,40.932,46Z" fill="#fff"/>
  <path id="Path_45" data-name="Path 45" d="M94.932,46H59.068A5.068,5.068,0,0,1,54,40.932V5.068A5.068,5.068,0,0,1,59.068,0H94.933A5.068,5.068,0,0,1,100,5.068V40.933A5.068,5.068,0,0,1,94.932,46Z" fill="#fff"/>
  <path id="Path_46" data-name="Path 46" d="M40.932,100H5.068A5.068,5.068,0,0,1,0,94.932V59.068A5.068,5.068,0,0,1,5.068,54H40.933A5.068,5.068,0,0,1,46,59.068V94.933A5.068,5.068,0,0,1,40.932,100Z" fill="#fff"/>
  <path id="Path_47" data-name="Path 47" d="M94.932,100H59.068A5.068,5.068,0,0,1,54,94.932V59.068A5.068,5.068,0,0,1,59.068,54H94.933A5.068,5.068,0,0,1,100,59.068V94.933A5.069,5.069,0,0,1,94.932,100Z" fill="#fff"/>
</svg>
