<svg xmlns="http://www.w3.org/2000/svg" width="24" height="24" viewBox="0 0 24 24">
  <g id="Notix_notification_center_icon" data-name="Notix notification center icon" transform="translate(-2 -2)">
    <path id="Path_5" data-name="Path 5" d="M2,11.5A5.5,5.5,0,0,1,7.5,6h9.421a.785.785,0,1,1,0,1.57H7.5A3.925,3.925,0,0,0,3.57,11.5V22.487A3.925,3.925,0,0,0,7.5,26.412H18.487a3.925,3.925,0,0,0,3.925-3.925V13.066a.785.785,0,0,1,1.57,0v9.421a5.5,5.5,0,0,1-5.5,5.5H7.5a5.5,5.5,0,0,1-5.5-5.5Z" transform="translate(0 -1.983)" fill="#fff"/>
    <path id="Path_4" data-name="Path 4" d="M48.539,2a4.539,4.539,0,1,0,4.539,4.539A4.539,4.539,0,0,0,48.539,2Z" transform="translate(-27.078)" fill="#fff"/>
  </g>
</svg>
