<svg xmlns="http://www.w3.org/2000/svg" width="24" height="22.5" viewBox="0 0 24 22.5">
  <g id="Order_Icon" data-name="Order Icon" transform="translate(0 -1)">
    <path id="Path_1" data-name="Path 1" d="M7.5,15.25A2.25,2.25,0,1,1,5.25,13,2.251,2.251,0,0,1,7.5,15.25Z" transform="translate(1.5 6)" fill="#fff"/>
    <path id="Path_2" data-name="Path 2" d="M17.5,15.25A2.25,2.25,0,1,1,15.25,13,2.251,2.251,0,0,1,17.5,15.25Z" transform="translate(6.5 6)" fill="#fff"/>
    <path id="Path_3" data-name="Path 3" d="M24,11.5v-9H6A1.5,1.5,0,0,0,4.5,1H0V2.5H3l1.126,9.657A3,3,0,0,0,6,17.5H24V16H6a1.5,1.5,0,0,1-1.5-1.5v-.015Z" transform="translate(0 0)" fill="#fff"/>
  </g>
</svg>
