<svg xmlns="http://www.w3.org/2000/svg" width="23.882" height="24.118" viewBox="0 0 23.882 24.118">
  <g id="Refer" transform="translate(-0.118)">
    <g id="Group_4" data-name="Group 4" transform="translate(0.118)">
      <path id="Path_22" data-name="Path 22" d="M99.853,324.918a.393.393,0,0,0-.257-.1c-.054-.006-.373,0-1.362.743-.655.492-1.372,1.129-1.948,1.641-.286.254-.534.474-.733.641a5.672,5.672,0,0,1-4.626,1.039,1.771,1.771,0,0,1-2.3,1.051,19.08,19.08,0,0,1-3.147-1.361c-.43-.219-.837-.426-1.223-.6a.4.4,0,1,1,.331-.732c.4.182.818.393,1.257.616a18.182,18.182,0,0,0,3.013,1.307.97.97,0,0,0,1.316-.564c.138-.437-.055-.989-.8-1.237a16.576,16.576,0,0,1-4.7-2.751c-.691-.692-2.865-.5-5.026.035V330.3c.267-.023.513-.034.742-.034a5.316,5.316,0,0,1,3.24,1.075A11.03,11.03,0,0,0,87.667,333a11.881,11.881,0,0,0,3.669-.924,27.658,27.658,0,0,0,3.837-1.568,19.414,19.414,0,0,0,2.738-2.371,8.6,8.6,0,0,0,1.9-2.38C99.853,325.593,99.968,325.08,99.853,324.918Z" transform="translate(-76.021 -308.894)" fill="#fff"/>
      <path id="Path_23" data-name="Path 23" d="M5.34,304.811c0-.121-.138-.223-.3-.223H2.811c-.163,0-.3.1-.3.223v8.425c0,.121.138.223.3.223H5.039c.163,0,.3-.1.3-.223Z" transform="translate(-2.51 -290.24)" fill="#fff"/>
      <path id="Path_24" data-name="Path 24" d="M100.216,145.8l1.687-1.522a2.386,2.386,0,0,1-.542-.615l-1.719,1.261A2.651,2.651,0,0,1,100.216,145.8Z" transform="translate(-95.067 -136.895)" fill="#fff"/>
      <path id="Path_25" data-name="Path 25" d="M97.205,52.645l-2.181-1.492q-.033.047-.068.092L96.993,52.9A2.387,2.387,0,0,1,97.205,52.645Z" transform="translate(-90.601 -48.743)" fill="#fff"/>
      <path id="Path_26" data-name="Path 26" d="M147.407,87.447a1.564,1.564,0,1,0-1.564-1.564A1.565,1.565,0,0,0,147.407,87.447Z" transform="translate(-139.091 -80.348)" fill="#fff"/>
      <path id="Path_27" data-name="Path 27" d="M24.3,172.591a1.84,1.84,0,1,0-1.84,1.84A1.842,1.842,0,0,0,24.3,172.591Z" transform="translate(-19.771 -162.708)" fill="#fff"/>
      <path id="Path_28" data-name="Path 28" d="M35.73,2.481a1.241,1.241,0,1,0-1.241-1.241A1.242,1.242,0,0,0,35.73,2.481Z" transform="translate(-32.983 0)" fill="#fff"/>
      <path id="Path_29" data-name="Path 29" d="M226.734,112.553a5.581,5.581,0,0,0,5.575-5.575,8.193,8.193,0,0,0-3.72-6.63,4.918,4.918,0,0,1,1.133,2.127.4.4,0,1,1-.782.187,4.452,4.452,0,0,0-2.294-2.815,3.851,3.851,0,0,0-1.706.466,8.167,8.167,0,0,0-3.782,6.665A5.581,5.581,0,0,0,226.734,112.553Zm-.6-8.642c.065-.018.13-.032.195-.043v-.879a.4.4,0,1,1,.8,0v.89a1.872,1.872,0,0,1,1.255.9.4.4,0,1,1-.7.4,1.081,1.081,0,0,0-.954-.534h-.02a1.4,1.4,0,0,0-.368.048.851.851,0,0,0-.7.794c.009.565.475.786,1.236,1.1.719.3,1.613.666,1.73,1.659a1.578,1.578,0,0,1-.363,1.266,1.891,1.891,0,0,1-1.113.581v.882a.4.4,0,1,1-.8,0v-.875a1.962,1.962,0,0,1-1.434-.876.4.4,0,1,1,.692-.409,1.316,1.316,0,0,0,1.127.51h.014a1.24,1.24,0,0,0,.915-.344.787.787,0,0,0,.168-.64c-.058-.489-.507-.708-1.239-1.01-.765-.316-1.716-.709-1.733-1.831A1.63,1.63,0,0,1,226.138,103.911Z" transform="translate(-210.859 -95.144)" fill="#fff"/>
      <path id="Path_30" data-name="Path 30" d="M280.922,10.187a4.425,4.425,0,0,1,1.43-.242h.013a4.553,4.553,0,0,1,1.926.447,4.8,4.8,0,0,0,1.02-1.821,5.425,5.425,0,0,0,.332-1.976,3.355,3.355,0,0,1-3.483.166,3.216,3.216,0,0,0-2.4-.286.733.733,0,0,0-.237.161A3.806,3.806,0,0,1,280.922,10.187Z" transform="translate(-266.478 -6.047)" fill="#fff"/>
    </g>
  </g>
</svg>
