<svg xmlns="http://www.w3.org/2000/svg" width="24" height="23.59" viewBox="0 0 24 23.59">
  <g id="support" transform="translate(-1.001 -1)">
    <path id="Path_37" data-name="Path 37" d="M22,11.7H4.4A2.4,2.4,0,0,0,2,14.1v6.4a2.4,2.4,0,0,0,2.4,2.4H6.8a.961.961,0,0,1,.961.961v1.1a.961.961,0,0,0,1.61.709l2.335-2.137A2.418,2.418,0,0,1,13.34,22.9H22a2.4,2.4,0,0,0,2.4-2.4V14.1A2.4,2.4,0,0,0,22,11.7ZM6.68,18.142a.8.8,0,1,1,.8-.8.8.8,0,0,1-.8.8Zm3.275,0a.8.8,0,1,1,.8-.8A.8.8,0,0,1,9.955,18.142Zm3.275,0a.8.8,0,1,1,.8-.8A.8.8,0,0,1,13.231,18.142Zm6.7,0H16.8a.8.8,0,0,1,0-1.6h3.129a.8.8,0,1,1,0,1.6Z" transform="translate(-0.2 -2.141)" fill="#fff"/>
    <circle id="Ellipse_2" data-name="Ellipse 2" cx="0.8" cy="0.8" r="0.8" transform="translate(19.493 4.882)" fill="#fff"/>
    <circle id="Ellipse_3" data-name="Ellipse 3" cx="0.8" cy="0.8" r="0.8" transform="translate(16.217 4.882)" fill="#fff"/>
    <circle id="Ellipse_4" data-name="Ellipse 4" cx="0.8" cy="0.8" r="0.8" transform="translate(12.942 4.882)" fill="#fff"/>
    <path id="Path_38" data-name="Path 38" d="M8.53,26.531a1.771,1.771,0,0,1-.718-.153,1.738,1.738,0,0,1-1.05-1.612v-1.1A.161.161,0,0,0,6.6,23.5H4.2A3.2,3.2,0,0,1,1,20.3V13.9a3.2,3.2,0,0,1,3.2-3.2H21.8A3.2,3.2,0,0,1,25,13.9v6.4a3.2,3.2,0,0,1-3.2,3.2H13.14a1.612,1.612,0,0,0-1.092.424L9.712,26.065a1.743,1.743,0,0,1-1.182.466ZM4.2,12.3a1.6,1.6,0,0,0-1.6,1.6v6.4a1.6,1.6,0,0,0,1.6,1.6H6.6a1.762,1.762,0,0,1,1.761,1.761v1.1a.149.149,0,0,0,.1.148.144.144,0,0,0,.174-.029l2.335-2.136A3.206,3.206,0,0,1,13.14,21.9H21.8a1.6,1.6,0,0,0,1.6-1.6V13.9a1.6,1.6,0,0,0-1.6-1.6Z" transform="translate(0 -1.941)" fill="#fff"/>
    <path id="Path_39" data-name="Path 39" d="M6.6,9.563H5V4.2A3.2,3.2,0,0,1,8.2,1H22.6a3.2,3.2,0,0,1,3.2,3.2V6.6a.8.8,0,0,1-.8.8h0a.8.8,0,0,1-.8-.8V4.2a1.6,1.6,0,0,0-1.6-1.6H8.2A1.6,1.6,0,0,0,6.6,4.2Z" transform="translate(-0.8)" fill="#fff"/>
  </g>
</svg>
